<svg viewBox="0 0 792 690" fill="none" xmlns="http://www.w3.org/2000/svg">
<g id="notifications">
<g id="Vector">
<path d="M141.626 0.0930305C152.944 0.525982 164.427 2.11347 174.597 6.73162C185.423 11.6384 193.953 19.5758 203.959 25.6372C225.12 38.4814 251.53 42.3779 276.955 45.5529C358.973 55.9438 443.288 63.0153 523.83 46.2745C548.107 41.2234 571.892 34.0076 596.662 31.4098C648.333 26.0701 702.301 42.2336 739.537 74.272C776.61 106.31 796.294 153.502 791.209 198.962C781.859 282.377 700.169 342.991 654.075 416.304C625.86 461.042 610.769 511.986 610.441 563.074C610.277 591.649 613.886 622.533 596.334 646.634C579.11 670.158 546.139 680.548 514.644 685.311C439.515 696.712 362.582 685.166 287.618 673.621C254.318 668.57 220.855 663.375 189.36 652.407C140.805 635.666 98.648 605.359 70.4338 567.115C22.0431 501.451 16.6299 418.757 18.1062 340.537C19.2545 279.347 23.6835 217.29 11.2167 156.677C5.47544 128.535 -7.15535 108.331 5.3114 80.622C15.4816 58.3972 33.0335 38.9143 55.0144 24.7713C79.7838 8.60774 110.459 -1.06151 141.626 0.0930305Z" fill="#2191F9"/>
<path d="M141.626 0.0930305C152.944 0.525982 164.427 2.11347 174.597 6.73162C185.423 11.6384 193.953 19.5758 203.959 25.6372C225.12 38.4814 251.53 42.3779 276.955 45.5529C358.973 55.9438 443.288 63.0153 523.83 46.2745C548.107 41.2234 571.892 34.0076 596.662 31.4098C648.333 26.0701 702.301 42.2336 739.537 74.272C776.61 106.31 796.294 153.502 791.209 198.962C781.859 282.377 700.169 342.991 654.075 416.304C625.86 461.042 610.769 511.986 610.441 563.074C610.277 591.649 613.886 622.533 596.334 646.634C579.11 670.158 546.139 680.548 514.644 685.311C439.515 696.712 362.582 685.166 287.618 673.621C254.318 668.57 220.855 663.375 189.36 652.407C140.805 635.666 98.648 605.359 70.4338 567.115C22.0431 501.451 16.6299 418.757 18.1062 340.537C19.2545 279.347 23.6835 217.29 11.2167 156.677C5.47544 128.535 -7.15535 108.331 5.3114 80.622C15.4816 58.3972 33.0335 38.9143 55.0144 24.7713C79.7838 8.60774 110.459 -1.06151 141.626 0.0930305Z" fill="url(#paint0_linear)"/>
</g>
<g id="undraw_push_notifications_im0o 1">
<path id="Vector_2" d="M190.356 482.115C187.258 485.479 185.485 490.062 185.422 494.866C185.359 499.67 187.011 504.308 190.02 507.771L294.114 627.062C295.628 628.797 297.438 630.181 299.439 631.134C301.441 632.086 303.593 632.589 305.771 632.612C307.95 632.636 310.11 632.179 312.128 631.269C314.145 630.359 315.979 629.014 317.523 627.312L635.162 277.132C636.897 275.219 638.224 272.901 639.046 270.347C639.867 267.793 640.163 265.068 639.911 262.371C639.66 259.674 638.867 257.073 637.591 254.759C636.315 252.445 634.587 250.476 632.536 248.997L507.634 158.92C504.51 156.644 500.775 155.623 497.054 156.029C493.333 156.434 489.85 158.241 487.187 161.148L190.356 482.115Z" fill="#3F3D56"/>
<path id="Vector_3" d="M637.34 254.316C636.71 255.388 635.98 256.383 635.162 257.286L318.27 614.082C316.726 615.783 314.892 617.128 312.875 618.038C310.857 618.948 308.696 619.405 306.518 619.381C304.34 619.358 302.187 618.855 300.186 617.903C298.185 616.95 296.375 615.566 294.861 613.831L188.526 489.578C187.801 488.745 187.151 487.836 186.583 486.865C182.505 493.812 184.614 501.577 190.02 507.771L294.114 627.062C295.628 628.797 297.438 630.181 299.439 631.133C301.441 632.086 303.593 632.589 305.771 632.612C307.95 632.636 310.11 632.179 312.128 631.269C314.145 630.359 315.979 629.014 317.523 627.312L635.162 277.132C637.835 274.184 639.511 270.307 639.907 266.152C640.304 261.997 639.397 257.818 637.34 254.316V254.316Z" fill="#6C63FF"/>
<path id="Vector_4" d="M607.93 258.632L595.004 249.507C596.365 252.193 596.865 255.311 596.422 258.352C595.979 261.393 594.619 264.179 592.564 266.255C590.509 268.331 587.879 269.575 585.103 269.785C582.328 269.995 579.57 269.158 577.278 267.411L493.633 203.737C491.731 202.292 490.235 200.285 489.314 197.944C488.393 195.603 488.084 193.022 488.423 190.497C488.763 187.971 489.736 185.602 491.232 183.659C492.729 181.716 494.688 180.277 496.887 179.507L490.227 174.806C489.363 174.196 488.336 173.932 487.318 174.059C486.299 174.186 485.351 174.695 484.631 175.502L203.24 481.689C202.82 482.16 202.489 482.718 202.267 483.332C202.045 483.946 201.936 484.603 201.947 485.264C201.957 485.925 202.087 486.578 202.329 487.183C202.57 487.787 202.919 488.333 203.353 488.786L305.548 599.042C306.395 599.926 307.52 600.411 308.684 600.393C309.848 600.375 310.96 599.856 311.785 598.946L608.684 266.33C609.16 265.805 609.523 265.169 609.746 264.468C609.97 263.767 610.048 263.019 609.976 262.28C609.903 261.541 609.682 260.83 609.328 260.198C608.974 259.567 608.496 259.032 607.93 258.632V258.632Z" fill="white"/>
<path id="Vector_5" d="M283.162 414.08L369.483 504.197L574.806 279.586L470.603 204.488L283.162 414.08Z" fill="#E6E6E6"/>
<path id="Vector_6" d="M566.826 335.018C567.395 335.62 568.151 335.955 568.938 335.955C569.725 335.955 570.481 335.62 571.051 335.018L589.006 315.138C589.565 314.517 589.879 313.676 589.879 312.799C589.879 311.922 589.565 311.081 589.006 310.46C588.437 309.859 587.68 309.523 586.894 309.523C586.107 309.523 585.35 309.859 584.781 310.46L566.826 330.341C566.266 330.962 565.953 331.803 565.953 332.68C565.953 333.556 566.266 334.397 566.826 335.018V335.018Z" fill="#3F3D56"/>
<path id="Vector_7" d="M536.579 368.51C537.14 369.129 537.899 369.476 538.691 369.476C539.483 369.476 540.243 369.129 540.804 368.51L558.759 348.629C559.318 348.008 559.632 347.167 559.631 346.29C559.63 345.414 559.316 344.574 558.756 343.954C558.196 343.334 557.437 342.986 556.646 342.985C555.854 342.984 555.095 343.332 554.534 343.95L536.579 363.831C536.019 364.452 535.705 365.294 535.705 366.171C535.705 367.047 536.019 367.889 536.579 368.51V368.51Z" fill="#3F3D56"/>
<path id="Vector_8" d="M285.155 513.76C296.292 513.76 305.32 503.764 305.32 491.433C305.32 479.102 296.292 469.106 285.155 469.106C274.019 469.106 264.99 479.102 264.99 491.433C264.99 503.764 274.019 513.76 285.155 513.76Z" fill="#6C63FF"/>
<path id="Vector_9" d="M480.362 634.001H51.6163V632.197H480.657L480.362 634.001Z" fill="#3F3D56"/>
<g id="box-not">
<g id="note3">
<path id="Vector_10" d="M432.282 298.501H219.128V345.099H432.282V298.501Z" fill="#E6E6E6"/>
<path id="Vector_11" d="M223.671 340.068H427.738V303.533H223.671V340.068Z" fill="white"/>
<path id="Vector_12" d="M241.536 336.021C248.479 336.021 254.107 329.79 254.107 322.103C254.107 314.416 248.479 308.184 241.536 308.184C234.593 308.184 228.965 314.416 228.965 322.103C228.965 329.79 234.593 336.021 241.536 336.021Z" fill="#CCCCCC"/>
<path id="Vector_13" d="M395.663 316.656H271.596V319.682H395.663V316.656Z" fill="#CCCCCC"/>
<path id="Vector_14" d="M395.663 324.523H271.596V327.549H395.663V324.523Z" fill="#CCCCCC"/>
</g>
<g id="note2">
<path id="Vector_15" d="M432.282 224.872H219.128V271.469H432.282V224.872Z" fill="#E6E6E6"/>
<path id="Vector_16" d="M223.672 266.6H427.738V230.066H223.672V266.6Z" fill="white"/>
<path id="Vector_17" d="M241.536 262.392C248.479 262.392 254.107 256.16 254.107 248.473C254.107 240.786 248.479 234.554 241.536 234.554C234.593 234.554 228.965 240.786 228.965 248.473C228.965 256.16 234.593 262.392 241.536 262.392Z" fill="#CCCCCC"/>
<path id="Vector_18" d="M395.663 243.027H271.596V246.053H395.663V243.027Z" fill="#CCCCCC"/>
<path id="Vector_19" d="M395.663 250.894H271.596V253.92H395.663V250.894Z" fill="#CCCCCC"/>
</g>
<g id="note1">
<path id="Vector_20" d="M432.282 151H219.128V197.598H432.282V151Z" fill="#E6E6E6"/>
<path id="Vector_21" d="M223.672 192.566H427.738V156.031H223.672V192.566Z" fill="white"/>
<path id="Vector_22" d="M241.536 187.915C248.479 187.915 254.107 181.683 254.107 173.996C254.107 166.309 248.479 160.078 241.536 160.078C234.593 160.078 228.965 166.309 228.965 173.996C228.965 181.683 234.593 187.915 241.536 187.915Z" fill="#6C63FF"/>
<path id="Vector_23" d="M395.663 168.55H271.596V171.576H395.663V168.55Z" fill="#6C63FF"/>
<path id="Vector_24" d="M395.663 176.417H271.596V179.443H395.663V176.417Z" fill="#6C63FF"/>
</g>
</g>
<path id="Vector_25" d="M9.5613 639.488L15.0602 640.203C19.4037 643.103 24.5017 644.194 30.148 643.972C30.9361 643.946 31.7044 643.692 32.3767 643.236C33.049 642.78 33.6019 642.137 33.9807 641.371V641.371C34.3095 640.7 34.4937 639.953 34.5192 639.189C34.5446 638.426 34.4106 637.666 34.1276 636.969C33.8445 636.273 33.42 635.658 32.8872 635.172C32.3543 634.687 31.7275 634.344 31.0554 634.171L26.8771 633.093L16.7949 622.175L10.7125 609.986L1.87731 611.108L0.0380214 626.59C-0.195307 629.688 0.667528 632.765 2.44439 635.171C4.22126 637.578 6.77312 639.126 9.5613 639.488V639.488Z" fill="#2F2E41"/>
<path id="Vector_26" d="M95.2044 631.656L100.594 633.06C104.611 636.488 109.563 638.216 115.196 638.708C115.981 638.781 116.771 638.626 117.486 638.258C118.2 637.889 118.816 637.32 119.271 636.607V636.607C119.667 635.981 119.927 635.263 120.031 634.508C120.134 633.752 120.079 632.981 119.87 632.253C119.66 631.525 119.302 630.86 118.822 630.311C118.343 629.761 117.756 629.342 117.106 629.085L113.066 627.487L104.172 615.368L99.3839 602.491H90.4908L87.0704 617.64C86.5198 620.688 87.0604 623.854 88.5781 626.469C90.0957 629.084 92.4717 630.944 95.2044 631.656Z" fill="#2F2E41"/>
<path id="Vector_27" d="M99.6235 603.348L89.5668 605.061L73.708 516.407L46.2453 464.585L12.9806 615.339L0.603046 617.909C1.99098 533.013 -4.78333 426.134 10.6598 413.191L77.9628 421.757L107.36 509.126L99.6235 603.348Z" fill="#2F2E41"/>
<path id="Vector_28" d="M50.886 281.281C63.7034 281.281 74.0939 269.776 74.0939 255.584C74.0939 241.392 63.7034 229.887 50.886 229.887C38.0686 229.887 27.6781 241.392 27.6781 255.584C27.6781 269.776 38.0686 281.281 50.886 281.281Z" fill="#FFB8B8"/>
<path id="Vector_29" d="M18.3946 294.986L46.2442 300.125L53.207 272.715L33.0932 265.863L18.3946 294.986Z" fill="#FFB8B8"/>
<path id="Vector_30" d="M6.79092 416.618L81.0563 424.327C75.1025 401.404 69.6476 378.561 74.0939 355.802C79.7402 335.483 74.2904 323.4 59.3956 313.83L49.3388 288.99L22.2629 285.564C15.0927 298.329 12.1597 313.459 13.9674 328.358C17.8254 360.755 16.7835 390.819 6.79092 416.618Z" fill="#6C63FF"/>
<path id="Vector_31" d="M41.76 226.421C49.6861 225.815 58.8501 225.648 59.9977 227.959C68.2053 227.534 75.3535 230.705 78.6506 238.082C78.9322 238.721 79.0838 239.42 79.0949 240.131C79.106 240.841 78.9762 241.546 78.7147 242.195C78.4531 242.844 78.0663 243.422 77.5813 243.888C77.0963 244.353 76.5249 244.695 75.9076 244.89C71.7439 246.219 65.3975 247.864 60.7669 247.339C51.15 259.857 55.1963 282.691 64.531 296.03L56.0958 297.944L40.0894 273.263L45.14 300.431L25.6614 303.958L18.8676 269.433C17.4392 261.238 17.7967 252.784 19.9104 244.772C20.1362 243.963 20.4086 243.171 20.726 242.4C22.6022 237.882 25.5484 234.011 29.2519 231.197C32.9553 228.384 37.2776 226.734 41.76 226.421Z" fill="#2F2E41"/>
<path id="Vector_32" d="M54.754 442.314L54.2408 462.2C54.1701 464.942 55.0401 467.611 56.6755 469.67C58.311 471.729 60.5904 473.026 63.0548 473.299V473.299C64.6332 473.474 66.2263 473.221 67.6971 472.563C69.1679 471.905 70.4724 470.862 71.4982 469.522C72.5241 468.182 73.2406 466.587 73.5863 464.872C73.9319 463.158 73.8962 461.377 73.4823 459.681L69.4523 443.171L57.8484 372.933L58.622 331.818L33.8669 330.962L38.5084 377.216L54.754 442.314Z" fill="#FFB8B8"/>
<path id="Vector_33" d="M32.3196 335.244C41.2885 331.462 51.2003 331.462 60.1692 335.244L58.622 300.982C58.622 297.347 57.3179 293.861 54.9967 291.291C52.6754 288.721 49.5271 287.277 46.2444 287.277V287.277C42.9617 287.277 39.8134 288.721 37.4922 291.291C35.1709 293.861 33.8669 297.347 33.8669 300.982L32.3196 335.244Z" fill="#6C63FF"/>
</g>
</g>
<defs>
<linearGradient id="paint0_linear" x1="396" y1="0" x2="396" y2="690" gradientUnits="userSpaceOnUse">
<stop stop-color="#6C63FF"/>
<stop offset="1" stop-color="#AAA5FF" stop-opacity="0"/>
</linearGradient>
</defs>
</svg>
