<svg width="494" height="381" viewBox="0 0 792 690" fill="none" xmlns="http://www.w3.org/2000/svg">
<path d="M141.626 0.0930305C152.944 0.525982 164.427 2.11347 174.597 6.73162C185.423 11.6384 193.953 19.5758 203.959 25.6372C225.12 38.4814 251.53 42.3779 276.955 45.5529C358.973 55.9438 443.288 63.0153 523.83 46.2745C548.107 41.2234 571.893 34.0076 596.662 31.4098C648.333 26.0701 702.301 42.2336 739.537 74.272C776.61 106.31 796.294 153.502 791.209 198.962C781.859 282.377 700.169 342.991 654.075 416.304C625.86 461.042 610.769 511.986 610.441 563.074C610.277 591.649 613.886 622.533 596.334 646.634C579.11 670.158 546.139 680.548 514.644 685.311C439.515 696.712 362.582 685.166 287.618 673.621C254.318 668.57 220.855 663.375 189.36 652.406C140.805 635.666 98.648 605.359 70.4338 567.115C22.0431 501.451 16.6299 418.757 18.1062 340.537C19.2545 279.347 23.6835 217.29 11.2167 156.677C5.47544 128.535 -7.15535 108.331 5.3114 80.622C15.4816 58.3972 33.0335 38.9143 55.0144 24.7713C79.7838 8.60774 110.459 -1.06151 141.626 0.0930305Z" fill="#2191F9"/>
<path d="M141.626 0.0930305C152.944 0.525982 164.427 2.11347 174.597 6.73162C185.423 11.6384 193.953 19.5758 203.959 25.6372C225.12 38.4814 251.53 42.3779 276.955 45.5529C358.973 55.9438 443.288 63.0153 523.83 46.2745C548.107 41.2234 571.893 34.0076 596.662 31.4098C648.333 26.0701 702.301 42.2336 739.537 74.272C776.61 106.31 796.294 153.502 791.209 198.962C781.859 282.377 700.169 342.991 654.075 416.304C625.86 461.042 610.769 511.986 610.441 563.074C610.277 591.649 613.886 622.533 596.334 646.634C579.11 670.158 546.139 680.548 514.644 685.311C439.515 696.712 362.582 685.166 287.618 673.621C254.318 668.57 220.855 663.375 189.36 652.406C140.805 635.666 98.648 605.359 70.4338 567.115C22.0431 501.451 16.6299 418.757 18.1062 340.537C19.2545 279.347 23.6835 217.29 11.2167 156.677C5.47544 128.535 -7.15535 108.331 5.3114 80.622C15.4816 58.3972 33.0335 38.9143 55.0144 24.7713C79.7838 8.60774 110.459 -1.06151 141.626 0.0930305Z" fill="url(#paint0_linear)"/>
<defs>
<linearGradient id="paint0_linear" x1="396" y1="0" x2="396" y2="690" gradientUnits="userSpaceOnUse">
<stop stop-color="#6C63FF"/>
<stop offset="1" stop-color="#AAA5FF" stop-opacity="0"/>
</linearGradient>
</defs>
</svg>
